<svg height="512" viewBox="0 0 192 192" width="512" xmlns="http://www.w3.org/2000/svg"><path d="m144 104a77.381 77.381 0 0 1 -17.688-2.028c-.88 3.338-1.633 6.7-2.284 10.028h-12.028v16h9.56a226.819 226.819 0 0 0 -1.56 24 8 8 0 0 0 8 8h8v8a8.009 8.009 0 0 1 -8 8h-16a8.009 8.009 0 0 1 -8-8v-8a24.027 24.027 0 0 0 -24-24h-80v16h80a8.009 8.009 0 0 1 8 8v8a24.027 24.027 0 0 0 24 24h16a24.027 24.027 0 0 0 24-24v-8h8a8 8 0 0 0 7.892-9.311c-1.59-9.609-3.615-33.257.82-51.624a62.82 62.82 0 0 1 -24.712 4.935z"/><path d="m144 0c-21.028 0-35.541 9.017-47.2 16.263-6.685 4.152-12.455 7.737-16.8 7.737-13.84 0-28.289-7.089-28.422-7.155a8.076 8.076 0 0 0 -11.578 7.155v48a8.076 8.076 0 0 0 11.578 7.155c3.98-1.99 16.846-7.155 28.422-7.155 4.345 0 10.115 3.585 16.8 7.737 11.659 7.246 26.172 16.263 47.2 16.263 22.143 0 48-12.571 48-48s-25.857-48-48-48zm0 72a24 24 0 1 1 24-24 24.027 24.027 0 0 1 -24 24z"/><path d="m0 16h24v16h-24z"/><path d="m0 40h24v16h-24z"/><path d="m0 64h24v16h-24z"/></svg>