<?xml version="1.0" encoding="iso-8859-1"?>
<!-- Generator: Adobe Illustrator 19.0.0, SVG Export Plug-In . SVG Version: 6.00 Build 0)  -->
<svg version="1.1" id="Capa_1" xmlns="http://www.w3.org/2000/svg" xmlns:xlink="http://www.w3.org/1999/xlink" x="0px" y="0px"
	 viewBox="0 0 512 512" style="enable-background:new 0 0 512 512;" xml:space="preserve">
<g>
	<g>
		<g>
			<path d="M469.333,181.333v64H0v21.333C0,278.449,9.551,288,21.333,288h76.8l85.333,85.333l-64,64H64V480h64
				c5.627-0.08,10.995-2.38,14.933-6.4l70.4-70.4l70.4,70.4c3.939,4.02,9.306,6.32,14.933,6.4h64v-42.667H307.2l-64-64L328.533,288
				h162.133c11.782,0,21.333-9.551,21.333-21.333v-85.333H469.333z M213.333,343.467L157.867,288H268.8L213.333,343.467z"/>
			<path d="M405.333,53.333C405.333,41.551,395.782,32,384,32h-64v42.667h42.667V96h-64c-35.346,0-64,28.654-64,64h170.667V53.333z"
				/>
			<path d="M405.333,202.667c0-11.782-9.551-21.333-21.333-21.333H85.333C55.336,181.816,27.797,198.016,12.8,224h392.533V202.667z"
				/>
		</g>
	</g>
</g>
<g>
</g>
<g>
</g>
<g>
</g>
<g>
</g>
<g>
</g>
<g>
</g>
<g>
</g>
<g>
</g>
<g>
</g>
<g>
</g>
<g>
</g>
<g>
</g>
<g>
</g>
<g>
</g>
<g>
</g>
</svg>
