<svg xmlns="http://www.w3.org/2000/svg" height="512pt" version="1.1" viewBox="0 0 511 512" width="512pt">
<g id="surface1">
<path d="M 319.886719 128 C 319.886719 139.78125 310.335938 149.332031 298.550781 149.332031 C 286.769531 149.332031 277.21875 139.78125 277.21875 128 C 277.21875 116.21875 286.769531 106.667969 298.550781 106.667969 C 310.335938 106.667969 319.886719 116.21875 319.886719 128 Z M 319.886719 128 " style=" stroke:none;fill-rule:nonzero;fill:rgb(0%,0%,0%);fill-opacity:1;" />
<path d="M 85.21875 490.667969 C 85.21875 502.449219 94.769531 512 106.550781 512 L 490.550781 512 C 502.335938 512 511.886719 502.449219 511.886719 490.667969 L 511.886719 448 L 85.21875 448 Z M 85.21875 490.667969 " style=" stroke:none;fill-rule:nonzero;fill:rgb(0%,0%,0%);fill-opacity:1;" />
<path d="M 298.550781 149.332031 C 277.238281 149.421875 256.058594 152.714844 235.726562 159.105469 C 230.84375 184.464844 241.6875 210.277344 263.21875 224.542969 C 284.746094 238.8125 312.742188 238.742188 334.199219 224.363281 C 355.65625 209.988281 366.367188 184.121094 361.359375 158.785156 C 341.011719 152.507812 319.84375 149.320312 298.550781 149.332031 Z M 298.550781 149.332031 " style=" stroke:none;fill-rule:nonzero;fill:rgb(0%,0%,0%);fill-opacity:1;" />
<path d="M 468.726562 234.667969 L 469.21875 234.667969 L 469.21875 170.667969 C 469.21875 76.410156 392.808594 0 298.550781 0 C 204.296875 0 127.886719 76.410156 127.886719 170.667969 L 127.886719 234.816406 C 121.746094 242.9375 116.207031 251.492188 111.308594 260.414062 L 56.3125 241.621094 C 45.171875 237.992188 33.167969 243.882812 29.21875 254.910156 L 1.65625 335.703125 C -2.160156 346.851562 3.792969 358.984375 14.945312 362.792969 L 85.21875 386.816406 L 85.21875 426.667969 L 511.886719 426.667969 L 511.886719 362.667969 C 511.878906 316.429688 496.71875 271.46875 468.726562 234.667969 Z M 426.550781 192.40625 C 419.507812 187.070312 412.140625 182.175781 404.492188 177.75 C 401.03125 233.722656 354.621094 277.347656 298.542969 277.347656 C 242.460938 277.347656 196.054688 233.722656 192.589844 177.75 C 184.953125 182.179688 177.59375 187.074219 170.550781 192.40625 L 170.550781 170.667969 C 170.550781 99.972656 227.859375 42.667969 298.550781 42.667969 C 369.246094 42.667969 426.550781 99.972656 426.550781 170.667969 Z M 426.550781 192.40625 " style=" stroke:none;fill-rule:nonzero;fill:rgb(0%,0%,0%);fill-opacity:1;" />
</g>
</svg>