<svg height="192pt" viewBox="0 -1 192 192" width="192pt" xmlns="http://www.w3.org/2000/svg"><path d="m176 37h-63.355469l21.601563-27-12.492188-10-25.753906 32.195312-25.753906-32.195312-12.492188 10 21.597656 27h-63.351562c-8.832031.011719-15.9882812 7.167969-16 16v104c.0117188 8.832031 7.167969 15.988281 16 16h24v16h16v-16h80v16h16v-16h24c8.832031-.011719 15.988281-7.167969 16-16v-104c-.011719-8.832031-7.167969-15.988281-16-16zm-152 104v-72c0-4.417969 3.582031-8 8-8h104c4.417969 0 8 3.582031 8 8v72c0 4.417969-3.582031 8-8 8h-104c-4.417969 0-8-3.582031-8-8zm144 8c-4.417969 0-8-3.582031-8-8s3.582031-8 8-8 8 3.582031 8 8-3.582031 8-8 8zm0-24c-4.417969 0-8-3.582031-8-8s3.582031-8 8-8 8 3.582031 8 8-3.582031 8-8 8zm8-24h-16v-16h16zm0-24h-16v-16h16zm0 0"/></svg>