<svg height="512" viewBox="0 0 192 192" width="512" xmlns="http://www.w3.org/2000/svg"><circle cx="96" cy="112" r="16"/><path d="m96 80a39.737 39.737 0 0 1 28.284 11.716l11.316-11.316a56 56 0 0 0 -79.2 0l11.316 11.316a39.737 39.737 0 0 1 28.284-11.716z"/><path d="m33.775 57.775 11.313 11.313a72 72 0 0 1 101.823 0l11.315-11.313a88 88 0 0 0 -124.451 0z"/><path d="m96 16a103.32 103.32 0 0 1 73.539 30.461l11.315-11.314a120 120 0 0 0 -169.707 0l11.314 11.314a103.32 103.32 0 0 1 73.539-30.461z"/><path d="m60.728 159.567-5.573-11.145a8 8 0 0 0 -14.31 0l-5.573 11.145-3.427-17.136-15.69 3.138 8 40a8 8 0 0 0 15 2.009l8.845-17.689 8.845 17.689a8 8 0 0 0 15-2.009l8-40-15.69-3.138z"/><path d="m88 144h16v48h-16z"/><path d="m112 152v40h16v-8h16v-16h-16v-8h24v-16h-32a8 8 0 0 0 -8 8z"/><path d="m160 144h16v48h-16z"/></svg>